<svg xmlns="http://www.w3.org/2000/svg">
  <title>logo</title>
  <symbol id="logo" viewBox="0 0 1641 243">
    <defs>
      <style>.cls-1,.cls-2,.cls-3{fill:#333;}.cls-2,.cls-3{stroke:#333;stroke-miterlimit:10;}.cls-3{stroke-width:1.5px;}
      </style>
    </defs>
    <path id="icone" class="cls-1"
          d="M179.33,98.19,156.27,48.82a6.46,6.46,0,1,0-11.71,5.48L159.7,86.63A5.43,5.43,0,0,1,149.42,90L130.09,48.78c-1.48-3.15-5.76-4.06-8.42-3s-4.53,5.27-3,8.42L145,110.42a4.81,4.81,0,0,1-2.37,6.18s-3.57,2.2-6.41-2.2L105.56,49.21a7.87,7.87,0,0,0-14.25,6.67l30.43,64.76a5.29,5.29,0,0,1-2.53,7,5.5,5.5,0,0,1-7.32-2.63L76.18,49.41A6.71,6.71,0,1,0,64,55.1l29,61.68a5.39,5.39,0,1,1-9.78,4.56L49.76,49.61a6.7,6.7,0,0,0-12.13,5.68l42.16,89.89c14.68,31.13,51.42,44.36,76.46,33.1C189.81,163.18,194,129.31,179.33,98.19Z"/>
    <g id="meteora">
      <path class="cls-2"
            d="M329.46,72.43l45.88,95.87,46-95.87h6V173.8h-4.14V78L377,173.8h-3.29l-46-95.31V173.8h-4.14V72.43Z"/>
      <path class="cls-2" d="M612.2,123.53h-55.9V170H620v3.76H552.16V72.43H620v3.76H556.29v43.58h55.9Z"/>
      <path class="cls-2" d="M811.3,76.19H770.71V173.8h-4.14V76.19H726V72.43H811.3Z"/>
      <path class="cls-2" d="M985,123.53h-55.9V170h63.72v3.76H924.94V72.43h67.85v3.76H929.08v43.58H985Z"/>
      <path class="cls-3"
            d="M1155.22,77.19c24.72,1.95,44.44,22.18,44.44,46.71A46.22,46.22,0,0,1,1186,156.53l1.12,2.9a49.14,49.14,0,0,0,15.41-35.53c0-26.46-21.6-48.2-48.42-49.61Z"/>
      <path class="cls-3"
            d="M1148.26,170.8c-25.1-1.57-45.25-22.1-45.25-46.89a46.07,46.07,0,0,1,14.23-33.13l-1.1-2.82a48.94,48.94,0,0,0-16,36c0,26.73,22,48.78,49.23,49.8Z"/>
      <path class="cls-2"
            d="M1353,130.42h-38.67V173.8h-4.14V72.43h35.54q16.77,0,26.69,7.86t9.92,21.38a26.06,26.06,0,0,1-7.09,18.14,30.7,30.7,0,0,1-18,9.64L1387,172.82v1h-4.36Zm-38.67-3.76h35.15q12.87,0,20.79-7.1a23,23,0,0,0,7.93-17.89q0-11.84-8.77-18.66t-24-6.82h-31.1Z"/>
      <path class="cls-2"
            d="M1566,143.51h-54.6L1499,173.8h-4.52L1536.2,72.43h5.06L1583,173.8h-4.52Zm-53.07-3.76h51.54L1538.73,77Z"/>
    </g>
  </symbol>

</svg>
